<?xml version="1.0" encoding="UTF-8"?>
<svg width="752pt" height="752pt" version="1.1" viewBox="0 0 752 752" xmlns="http://www.w3.org/2000/svg">
 <path d="m559.75 298.34c-9.9453-23.68-24.625-44.988-42.621-63.461-18.469-18.469-39.781-32.676-63.461-42.621-24.625-10.422-50.672-16.105-77.668-16.105-26.992 0-53.039 5.6836-77.664 16.105-23.68 9.9453-44.988 24.625-63.461 42.621-18.469 18.469-32.676 39.781-42.621 63.461-10.422 24.625-16.105 50.672-16.105 77.664 0 26.996 5.6836 53.043 16.105 77.668 9.9453 23.68 24.625 44.988 42.621 63.461 18.469 18.469 39.781 32.676 63.461 42.621 24.625 10.418 50.672 15.629 77.668 15.629 26.992 0 53.043-5.2109 77.668-15.629 23.68-9.9453 44.988-24.625 63.461-42.621 18.469-18.469 32.676-39.781 42.621-63.461 10.418-24.625 15.629-50.672 15.629-77.668-0.003906-26.992-5.2148-53.039-15.633-77.664z"/>
</svg>
